<mxfile host="app.diagrams.net" modified="2023-10-03T11:38:20.454Z" agent="Mozilla/5.0 (Windows NT 10.0; Win64; x64) AppleWebKit/537.36 (KHTML, like Gecko) Chrome/117.0.0.0 Safari/537.36" etag="VufINIdAfnEL1arMoT5A" version="22.0.0" type="device">
  <diagram name="Page-1" id="SqpIYaqtawSywDOhZFHP">
    <mxGraphModel dx="1562" dy="822" grid="1" gridSize="10" guides="1" tooltips="1" connect="1" arrows="1" fold="1" page="1" pageScale="1" pageWidth="850" pageHeight="1100" math="0" shadow="0">
      <root>
        <mxCell id="0" />
        <mxCell id="1" parent="0" />
        <mxCell id="udilyFFM_1cB9VpB8N2f-7" value="" style="edgeStyle=orthogonalEdgeStyle;rounded=0;orthogonalLoop=1;jettySize=auto;html=1;" edge="1" parent="1" source="udilyFFM_1cB9VpB8N2f-1" target="udilyFFM_1cB9VpB8N2f-3">
          <mxGeometry relative="1" as="geometry" />
        </mxCell>
        <mxCell id="udilyFFM_1cB9VpB8N2f-1" value="Is Map" style="rounded=0;whiteSpace=wrap;html=1;" vertex="1" parent="1">
          <mxGeometry x="40" y="240" width="120" height="60" as="geometry" />
        </mxCell>
        <mxCell id="udilyFFM_1cB9VpB8N2f-14" value="" style="edgeStyle=orthogonalEdgeStyle;rounded=0;orthogonalLoop=1;jettySize=auto;html=1;entryX=0;entryY=0.5;entryDx=0;entryDy=0;" edge="1" parent="1" source="udilyFFM_1cB9VpB8N2f-2" target="udilyFFM_1cB9VpB8N2f-8">
          <mxGeometry relative="1" as="geometry">
            <mxPoint x="600" y="320" as="targetPoint" />
          </mxGeometry>
        </mxCell>
        <mxCell id="udilyFFM_1cB9VpB8N2f-2" value="Determine path" style="rounded=0;whiteSpace=wrap;html=1;" vertex="1" parent="1">
          <mxGeometry x="440" y="290" width="120" height="60" as="geometry" />
        </mxCell>
        <mxCell id="udilyFFM_1cB9VpB8N2f-10" style="edgeStyle=orthogonalEdgeStyle;rounded=0;orthogonalLoop=1;jettySize=auto;html=1;exitX=0.5;exitY=1;exitDx=0;exitDy=0;entryX=0;entryY=0.5;entryDx=0;entryDy=0;" edge="1" parent="1" source="udilyFFM_1cB9VpB8N2f-3" target="udilyFFM_1cB9VpB8N2f-2">
          <mxGeometry relative="1" as="geometry" />
        </mxCell>
        <mxCell id="udilyFFM_1cB9VpB8N2f-3" value="Iterate keys" style="rounded=0;whiteSpace=wrap;html=1;" vertex="1" parent="1">
          <mxGeometry x="240" y="240" width="120" height="60" as="geometry" />
        </mxCell>
        <mxCell id="udilyFFM_1cB9VpB8N2f-6" value="" style="edgeStyle=orthogonalEdgeStyle;rounded=0;orthogonalLoop=1;jettySize=auto;html=1;" edge="1" parent="1" source="udilyFFM_1cB9VpB8N2f-4" target="udilyFFM_1cB9VpB8N2f-5">
          <mxGeometry relative="1" as="geometry" />
        </mxCell>
        <mxCell id="udilyFFM_1cB9VpB8N2f-4" value="Is List" style="rounded=0;whiteSpace=wrap;html=1;" vertex="1" parent="1">
          <mxGeometry x="40" y="360" width="120" height="60" as="geometry" />
        </mxCell>
        <mxCell id="udilyFFM_1cB9VpB8N2f-11" style="edgeStyle=orthogonalEdgeStyle;rounded=0;orthogonalLoop=1;jettySize=auto;html=1;exitX=0.5;exitY=0;exitDx=0;exitDy=0;entryX=0;entryY=0.5;entryDx=0;entryDy=0;" edge="1" parent="1" source="udilyFFM_1cB9VpB8N2f-5" target="udilyFFM_1cB9VpB8N2f-2">
          <mxGeometry relative="1" as="geometry" />
        </mxCell>
        <mxCell id="udilyFFM_1cB9VpB8N2f-5" value="Iterate list items" style="rounded=0;whiteSpace=wrap;html=1;" vertex="1" parent="1">
          <mxGeometry x="240" y="360" width="120" height="60" as="geometry" />
        </mxCell>
        <mxCell id="udilyFFM_1cB9VpB8N2f-8" value="Create top level map&lt;br&gt;for path entry" style="rounded=0;whiteSpace=wrap;html=1;" vertex="1" parent="1">
          <mxGeometry x="640" y="290" width="120" height="60" as="geometry" />
        </mxCell>
        <mxCell id="udilyFFM_1cB9VpB8N2f-12" style="edgeStyle=orthogonalEdgeStyle;rounded=0;orthogonalLoop=1;jettySize=auto;html=1;exitX=1;exitY=0.5;exitDx=0;exitDy=0;entryX=0.5;entryY=1;entryDx=0;entryDy=0;" edge="1" parent="1" source="udilyFFM_1cB9VpB8N2f-9" target="udilyFFM_1cB9VpB8N2f-2">
          <mxGeometry relative="1" as="geometry" />
        </mxCell>
        <mxCell id="udilyFFM_1cB9VpB8N2f-9" value="Is Object" style="rounded=0;whiteSpace=wrap;html=1;" vertex="1" parent="1">
          <mxGeometry x="40" y="480" width="120" height="60" as="geometry" />
        </mxCell>
      </root>
    </mxGraphModel>
  </diagram>
</mxfile>
